<?xml version="1.0" encoding="UTF-8" standalone="no"?><svg xmlns="http://www.w3.org/2000/svg" xmlns:xlink="http://www.w3.org/1999/xlink" contentScriptType="application/ecmascript" contentStyleType="text/css" height="549px" preserveAspectRatio="none" style="width:581px;height:549px;background:#FFFFFF;" version="1.1" viewBox="0 0 581 549" width="581px" zoomAndPan="magnify"><defs><filter height="300%" id="fzd8gs37hgrjx" width="300%" x="-1" y="-1"><feGaussianBlur result="blurOut" stdDeviation="2.0"/><feColorMatrix in="blurOut" result="blurOut2" type="matrix" values="0 0 0 0 0 0 0 0 0 0 0 0 0 0 0 0 0 0 .4 0"/><feOffset dx="4.0" dy="4.0" in="blurOut2" result="blurOut3"/><feBlend in="SourceGraphic" in2="blurOut3" mode="normal"/></filter></defs><g><ellipse cx="99" cy="48.6982" fill="#000000" filter="url(#fzd8gs37hgrjx)" rx="10" ry="10" style="stroke:none;stroke-width:1.0;"/><rect fill="#FEFECE" filter="url(#fzd8gs37hgrjx)" height="33.9688" rx="12.5" ry="12.5" style="stroke:#A80036;stroke-width:1.5;" width="112" x="43" y="78.6982"/><text fill="#000000" font-family="sans-serif" font-size="12" lengthAdjust="spacing" textLength="92" x="53" y="99.8369">Harvest Coffee</text><rect fill="#FEFECE" filter="url(#fzd8gs37hgrjx)" height="33.9688" rx="12.5" ry="12.5" style="stroke:#A80036;stroke-width:1.5;" width="114" x="42" y="132.667"/><text fill="#000000" font-family="sans-serif" font-size="12" lengthAdjust="spacing" textLength="94" x="52" y="153.8057">Process Coffee</text><rect fill="#FEFECE" filter="url(#fzd8gs37hgrjx)" height="33.9688" rx="12.5" ry="12.5" style="stroke:#A80036;stroke-width:1.5;" width="94" x="52" y="186.6357"/><text fill="#000000" font-family="sans-serif" font-size="12" lengthAdjust="spacing" textLength="74" x="62" y="207.7744">Pack Coffee</text><rect fill="#FEFECE" filter="url(#fzd8gs37hgrjx)" height="33.9688" rx="12.5" ry="12.5" style="stroke:#A80036;stroke-width:1.5;" width="156" x="21" y="240.6045"/><text fill="#000000" font-family="sans-serif" font-size="12" lengthAdjust="spacing" textLength="136" x="31" y="261.7432">Put Coffee up for sale</text><line style="stroke:#000000;stroke-width:2.0;" x1="15" x2="15" y1="12.7451" y2="532.4482"/><rect fill="#FEFECE" filter="url(#fzd8gs37hgrjx)" height="33.9688" rx="12.5" ry="12.5" style="stroke:#A80036;stroke-width:1.5;" width="86" x="195.5" y="294.5732"/><text fill="#000000" font-family="sans-serif" font-size="12" lengthAdjust="spacing" textLength="66" x="205.5" y="315.7119">Buy Coffee</text><rect fill="#FEFECE" filter="url(#fzd8gs37hgrjx)" height="33.9688" rx="12.5" ry="12.5" style="stroke:#A80036;stroke-width:1.5;" width="91" x="193" y="348.542"/><text fill="#000000" font-family="sans-serif" font-size="12" lengthAdjust="spacing" textLength="71" x="203" y="369.6807">Ship Coffee</text><line style="stroke:#000000;stroke-width:2.0;" x1="187" x2="187" y1="12.7451" y2="532.4482"/><rect fill="#FEFECE" filter="url(#fzd8gs37hgrjx)" height="33.9688" rx="12.5" ry="12.5" style="stroke:#A80036;stroke-width:1.5;" width="112" x="300" y="402.5107"/><text fill="#000000" font-family="sans-serif" font-size="12" lengthAdjust="spacing" textLength="92" x="310" y="423.6494">Receive Coffee</text><line style="stroke:#000000;stroke-width:2.0;" x1="294" x2="294" y1="12.7451" y2="532.4482"/><rect fill="#FEFECE" filter="url(#fzd8gs37hgrjx)" height="33.9688" rx="12.5" ry="12.5" style="stroke:#A80036;stroke-width:1.5;" width="123" x="428" y="456.4795"/><text fill="#000000" font-family="sans-serif" font-size="12" lengthAdjust="spacing" textLength="103" x="438" y="477.6182">Purchase Coffee</text><ellipse cx="489.5" cy="521.4482" fill="#FFFFFF" filter="url(#fzd8gs37hgrjx)" rx="11" ry="11" style="stroke:#000000;stroke-width:1.0;"/><ellipse cx="489.5" cy="521.4482" fill="#000000" rx="6" ry="6" style="stroke:#7F7F7F;stroke-width:1.0;"/><line style="stroke:#000000;stroke-width:2.0;" x1="422" x2="422" y1="12.7451" y2="532.4482"/><line style="stroke:#000000;stroke-width:2.0;" x1="561" x2="561" y1="12.7451" y2="532.4482"/><line style="stroke:#A80036;stroke-width:1.5;" x1="99" x2="99" y1="58.6982" y2="78.6982"/><polygon fill="#A80036" points="95,68.6982,99,78.6982,103,68.6982,99,72.6982" style="stroke:#A80036;stroke-width:1.0;"/><line style="stroke:#A80036;stroke-width:1.5;" x1="99" x2="99" y1="112.667" y2="132.667"/><polygon fill="#A80036" points="95,122.667,99,132.667,103,122.667,99,126.667" style="stroke:#A80036;stroke-width:1.0;"/><line style="stroke:#A80036;stroke-width:1.5;" x1="99" x2="99" y1="166.6357" y2="186.6357"/><polygon fill="#A80036" points="95,176.6357,99,186.6357,103,176.6357,99,180.6357" style="stroke:#A80036;stroke-width:1.0;"/><line style="stroke:#A80036;stroke-width:1.5;" x1="99" x2="99" y1="220.6045" y2="240.6045"/><polygon fill="#A80036" points="95,230.6045,99,240.6045,103,230.6045,99,234.6045" style="stroke:#A80036;stroke-width:1.0;"/><line style="stroke:#A80036;stroke-width:1.5;" x1="238.5" x2="238.5" y1="328.542" y2="348.542"/><polygon fill="#A80036" points="234.5,338.542,238.5,348.542,242.5,338.542,238.5,342.542" style="stroke:#A80036;stroke-width:1.0;"/><line style="stroke:#A80036;stroke-width:1.5;" x1="489.5" x2="489.5" y1="490.4482" y2="510.4482"/><polygon fill="#A80036" points="485.5,500.4482,489.5,510.4482,493.5,500.4482,489.5,504.4482" style="stroke:#A80036;stroke-width:1.0;"/><line style="stroke:#A80036;stroke-width:1.5;" x1="99" x2="99" y1="274.5732" y2="279.5732"/><line style="stroke:#A80036;stroke-width:1.5;" x1="99" x2="238.5" y1="279.5732" y2="279.5732"/><line style="stroke:#A80036;stroke-width:1.5;" x1="238.5" x2="238.5" y1="279.5732" y2="294.5732"/><polygon fill="#A80036" points="234.5,284.5732,238.5,294.5732,242.5,284.5732,238.5,288.5732" style="stroke:#A80036;stroke-width:1.0;"/><line style="stroke:#A80036;stroke-width:1.5;" x1="238.5" x2="238.5" y1="382.5107" y2="387.5107"/><line style="stroke:#A80036;stroke-width:1.5;" x1="238.5" x2="356" y1="387.5107" y2="387.5107"/><line style="stroke:#A80036;stroke-width:1.5;" x1="356" x2="356" y1="387.5107" y2="402.5107"/><polygon fill="#A80036" points="352,392.5107,356,402.5107,360,392.5107,356,396.5107" style="stroke:#A80036;stroke-width:1.0;"/><line style="stroke:#A80036;stroke-width:1.5;" x1="356" x2="356" y1="436.4795" y2="441.4795"/><line style="stroke:#A80036;stroke-width:1.5;" x1="356" x2="489.5" y1="441.4795" y2="441.4795"/><line style="stroke:#A80036;stroke-width:1.5;" x1="489.5" x2="489.5" y1="441.4795" y2="456.4795"/><polygon fill="#A80036" points="485.5,446.4795,489.5,456.4795,493.5,446.4795,489.5,450.4795" style="stroke:#A80036;stroke-width:1.0;"/><text fill="#000000" font-family="sans-serif" font-size="18" lengthAdjust="spacing" textLength="64" x="69" y="29.4531">Farmer</text><text fill="#000000" font-family="sans-serif" font-size="18" lengthAdjust="spacing" textLength="95" x="193" y="29.4531">Distributor</text><text fill="#000000" font-family="sans-serif" font-size="18" lengthAdjust="spacing" textLength="70" x="323" y="29.4531">Retailer</text><text fill="#000000" font-family="sans-serif" font-size="18" lengthAdjust="spacing" textLength="90" x="446.5" y="29.4531">Consumer</text><!--MD5=[b5387288c20e92b2371ded37858091ca]
@startuml Activity Diagram
|Farmer|
start
:Harvest Coffee;
:Process Coffee;
:Pack Coffee;
:Put Coffee up for sale;
|Distributor|
:Buy Coffee;
:Ship Coffee;
|Retailer|
:Receive Coffee;
|Consumer|
:Purchase Coffee;
stop
@enduml

PlantUML version 1.2022.0(Wed Jan 12 00:16:42 HKT 2022)
(GPL source distribution)
Java Runtime: OpenJDK Runtime Environment
JVM: OpenJDK 64-Bit Server VM
Default Encoding: UTF-8
Language: en
Country: null
--></g></svg>