<?xml version="1.0" encoding="UTF-8" standalone="no"?><svg xmlns="http://www.w3.org/2000/svg" xmlns:xlink="http://www.w3.org/1999/xlink" contentScriptType="application/ecmascript" contentStyleType="text/css" height="453px" preserveAspectRatio="none" style="width:1350px;height:453px;background:#FFFFFF;" version="1.1" viewBox="0 0 1350 453" width="1350px" zoomAndPan="magnify"><defs><filter height="300%" id="f1mhed25rsqost" width="300%" x="-1" y="-1"><feGaussianBlur result="blurOut" stdDeviation="2.0"/><feColorMatrix in="blurOut" result="blurOut2" type="matrix" values="0 0 0 0 0 0 0 0 0 0 0 0 0 0 0 0 0 0 .4 0"/><feOffset dx="4.0" dy="4.0" in="blurOut2" result="blurOut3"/><feBlend in="SourceGraphic" in2="blurOut3" mode="normal"/></filter></defs><g><!--MD5=[2c2e2644034c00788261e03c85b06837]
cluster Core--><polygon fill="#FFFFFF" filter="url(#f1mhed25rsqost)" points="16,6,60,6,67,28.2969,290,28.2969,290,169,16,169,16,6" style="stroke:#000000;stroke-width:1.5;"/><line style="stroke:#000000;stroke-width:1.5;" x1="16" x2="67" y1="28.2969" y2="28.2969"/><text fill="#000000" font-family="sans-serif" font-size="14" font-weight="bold" lengthAdjust="spacing" textLength="38" x="20" y="20.9951">Core</text><!--MD5=[f42a11379397a0158f8b3c1232d34347]
cluster AccessControl--><polygon fill="#FFFFFF" filter="url(#f1mhed25rsqost)" points="314,12.5,435,12.5,442,34.7969,1299,34.7969,1299,162.5,314,162.5,314,12.5" style="stroke:#000000;stroke-width:1.5;"/><line style="stroke:#000000;stroke-width:1.5;" x1="314" x2="442" y1="34.7969" y2="34.7969"/><text fill="#000000" font-family="sans-serif" font-size="14" font-weight="bold" lengthAdjust="spacing" textLength="115" x="318" y="27.4951">AccessControl</text><!--MD5=[64d5e6a70a29946089aa2bd5a6c51607]
cluster Base--><polygon fill="#FFFFFF" filter="url(#f1mhed25rsqost)" points="41,193,85,193,92,215.2969,1333,215.2969,1333,446,41,446,41,193" style="stroke:#000000;stroke-width:1.5;"/><line style="stroke:#000000;stroke-width:1.5;" x1="41" x2="92" y1="215.2969" y2="215.2969"/><text fill="#000000" font-family="sans-serif" font-size="14" font-weight="bold" lengthAdjust="spacing" textLength="38" x="45" y="207.9951">Base</text><!--MD5=[e8b38f76951d75a61b4cdf53a76e6409]
class Ownable--><rect codeLine="2" fill="#FEFECE" filter="url(#f1mhed25rsqost)" height="112.0234" id="Ownable" style="stroke:#A80036;stroke-width:1.5;" width="242" x="32" y="41"/><ellipse cx="122.25" cy="57" fill="#ADD1B2" rx="11" ry="11" style="stroke:#A80036;stroke-width:1.0;"/><path d="M125.2188,62.6406 Q124.6406,62.9375 124,63.0781 Q123.3594,63.2344 122.6563,63.2344 Q120.1563,63.2344 118.8281,61.5938 Q117.5156,59.9375 117.5156,56.8125 Q117.5156,53.6875 118.8281,52.0313 Q120.1563,50.375 122.6563,50.375 Q123.3594,50.375 124,50.5313 Q124.6563,50.6875 125.2188,50.9844 L125.2188,53.7031 Q124.5938,53.125 124,52.8594 Q123.4063,52.5781 122.7813,52.5781 Q121.4375,52.5781 120.75,53.6563 Q120.0625,54.7188 120.0625,56.8125 Q120.0625,58.9063 120.75,59.9844 Q121.4375,61.0469 122.7813,61.0469 Q123.4063,61.0469 124,60.7813 Q124.5938,60.5 125.2188,59.9219 L125.2188,62.6406 Z " fill="#000000"/><text fill="#000000" font-family="sans-serif" font-size="12" lengthAdjust="spacing" textLength="53" x="142.75" y="61.1543">Ownable</text><line style="stroke:#A80036;stroke-width:1.5;" x1="33" x2="273" y1="73" y2="73"/><text fill="#000000" font-family="sans-serif" font-size="11" lengthAdjust="spacing" textLength="114" x="38" y="87.2104">origOwner: address</text><line style="stroke:#A80036;stroke-width:1.5;" x1="33" x2="273" y1="93.8047" y2="93.8047"/><text fill="#000000" font-family="sans-serif" font-size="11" lengthAdjust="spacing" textLength="98" x="38" y="108.0151">owner(): address</text><text fill="#000000" font-family="sans-serif" font-size="11" lengthAdjust="spacing" textLength="87" x="38" y="120.8198">isOwner(): bool</text><text fill="#000000" font-family="sans-serif" font-size="11" lengthAdjust="spacing" textLength="122" x="38" y="133.6245">renounceOwnership()</text><text fill="#000000" font-family="sans-serif" font-size="11" lengthAdjust="spacing" textLength="230" x="38" y="146.4292">transferOwnership(newOwner: address)</text><!--MD5=[3679a8b84d0ba84ec033448a67d26674]
class FarmerRole--><rect codeLine="13" fill="#FEFECE" filter="url(#f1mhed25rsqost)" height="99.2188" id="FarmerRole" style="stroke:#A80036;stroke-width:1.5;" width="202" x="1081" y="47.5"/><ellipse cx="1142.25" cy="63.5" fill="#ADD1B2" rx="11" ry="11" style="stroke:#A80036;stroke-width:1.0;"/><path d="M1145.2188,69.1406 Q1144.6406,69.4375 1144,69.5781 Q1143.3594,69.7344 1142.6563,69.7344 Q1140.1563,69.7344 1138.8281,68.0938 Q1137.5156,66.4375 1137.5156,63.3125 Q1137.5156,60.1875 1138.8281,58.5313 Q1140.1563,56.875 1142.6563,56.875 Q1143.3594,56.875 1144,57.0313 Q1144.6563,57.1875 1145.2188,57.4844 L1145.2188,60.2031 Q1144.5938,59.625 1144,59.3594 Q1143.4063,59.0781 1142.7813,59.0781 Q1141.4375,59.0781 1140.75,60.1563 Q1140.0625,61.2188 1140.0625,63.3125 Q1140.0625,65.4063 1140.75,66.4844 Q1141.4375,67.5469 1142.7813,67.5469 Q1143.4063,67.5469 1144,67.2813 Q1144.5938,67 1145.2188,66.4219 L1145.2188,69.1406 Z " fill="#000000"/><text fill="#000000" font-family="sans-serif" font-size="12" lengthAdjust="spacing" textLength="71" x="1162.75" y="67.6543">FarmerRole</text><line style="stroke:#A80036;stroke-width:1.5;" x1="1082" x2="1282" y1="79.5" y2="79.5"/><text fill="#000000" font-family="sans-serif" font-size="11" lengthAdjust="spacing" textLength="78" x="1087" y="93.7104">farmers: Role</text><line style="stroke:#A80036;stroke-width:1.5;" x1="1082" x2="1282" y1="100.3047" y2="100.3047"/><text fill="#000000" font-family="sans-serif" font-size="11" lengthAdjust="spacing" textLength="190" x="1087" y="114.5151">isFarmer(account: address): bool</text><text fill="#000000" font-family="sans-serif" font-size="11" lengthAdjust="spacing" textLength="169" x="1087" y="127.3198">addFarmer(account: address)</text><text fill="#000000" font-family="sans-serif" font-size="11" lengthAdjust="spacing" textLength="102" x="1087" y="140.1245">renounceFarmer()</text><!--MD5=[1a9c30c6b491bda22f453748e39bbf60]
class DistributorRole--><rect codeLine="21" fill="#FEFECE" filter="url(#f1mhed25rsqost)" height="99.2188" id="DistributorRole" style="stroke:#A80036;stroke-width:1.5;" width="221" x="824.5" y="47.5"/><ellipse cx="884.25" cy="63.5" fill="#ADD1B2" rx="11" ry="11" style="stroke:#A80036;stroke-width:1.0;"/><path d="M887.2188,69.1406 Q886.6406,69.4375 886,69.5781 Q885.3594,69.7344 884.6563,69.7344 Q882.1563,69.7344 880.8281,68.0938 Q879.5156,66.4375 879.5156,63.3125 Q879.5156,60.1875 880.8281,58.5313 Q882.1563,56.875 884.6563,56.875 Q885.3594,56.875 886,57.0313 Q886.6563,57.1875 887.2188,57.4844 L887.2188,60.2031 Q886.5938,59.625 886,59.3594 Q885.4063,59.0781 884.7813,59.0781 Q883.4375,59.0781 882.75,60.1563 Q882.0625,61.2188 882.0625,63.3125 Q882.0625,65.4063 882.75,66.4844 Q883.4375,67.5469 884.7813,67.5469 Q885.4063,67.5469 886,67.2813 Q886.5938,67 887.2188,66.4219 L887.2188,69.1406 Z " fill="#000000"/><text fill="#000000" font-family="sans-serif" font-size="12" lengthAdjust="spacing" textLength="93" x="904.75" y="67.6543">DistributorRole</text><line style="stroke:#A80036;stroke-width:1.5;" x1="825.5" x2="1044.5" y1="79.5" y2="79.5"/><text fill="#000000" font-family="sans-serif" font-size="11" lengthAdjust="spacing" textLength="98" x="830.5" y="93.7104">distributors: Role</text><line style="stroke:#A80036;stroke-width:1.5;" x1="825.5" x2="1044.5" y1="100.3047" y2="100.3047"/><text fill="#000000" font-family="sans-serif" font-size="11" lengthAdjust="spacing" textLength="209" x="830.5" y="114.5151">isDistributor(account: address): bool</text><text fill="#000000" font-family="sans-serif" font-size="11" lengthAdjust="spacing" textLength="188" x="830.5" y="127.3198">addDistributor(account: address)</text><text fill="#000000" font-family="sans-serif" font-size="11" lengthAdjust="spacing" textLength="121" x="830.5" y="140.1245">renounceDistributor()</text><!--MD5=[8c4c1e3faa84663568cc2ab3ad733aef]
class RetailerRole--><rect codeLine="29" fill="#FEFECE" filter="url(#f1mhed25rsqost)" height="99.2188" id="RetailerRole" style="stroke:#A80036;stroke-width:1.5;" width="204" x="585" y="47.5"/><ellipse cx="645.25" cy="63.5" fill="#ADD1B2" rx="11" ry="11" style="stroke:#A80036;stroke-width:1.0;"/><path d="M648.2188,69.1406 Q647.6406,69.4375 647,69.5781 Q646.3594,69.7344 645.6563,69.7344 Q643.1563,69.7344 641.8281,68.0938 Q640.5156,66.4375 640.5156,63.3125 Q640.5156,60.1875 641.8281,58.5313 Q643.1563,56.875 645.6563,56.875 Q646.3594,56.875 647,57.0313 Q647.6563,57.1875 648.2188,57.4844 L648.2188,60.2031 Q647.5938,59.625 647,59.3594 Q646.4063,59.0781 645.7813,59.0781 Q644.4375,59.0781 643.75,60.1563 Q643.0625,61.2188 643.0625,63.3125 Q643.0625,65.4063 643.75,66.4844 Q644.4375,67.5469 645.7813,67.5469 Q646.4063,67.5469 647,67.2813 Q647.5938,67 648.2188,66.4219 L648.2188,69.1406 Z " fill="#000000"/><text fill="#000000" font-family="sans-serif" font-size="12" lengthAdjust="spacing" textLength="75" x="665.75" y="67.6543">RetailerRole</text><line style="stroke:#A80036;stroke-width:1.5;" x1="586" x2="788" y1="79.5" y2="79.5"/><text fill="#000000" font-family="sans-serif" font-size="11" lengthAdjust="spacing" textLength="80" x="591" y="93.7104">retailers: Role</text><line style="stroke:#A80036;stroke-width:1.5;" x1="586" x2="788" y1="100.3047" y2="100.3047"/><text fill="#000000" font-family="sans-serif" font-size="11" lengthAdjust="spacing" textLength="192" x="591" y="114.5151">isRetailer(account: address): bool</text><text fill="#000000" font-family="sans-serif" font-size="11" lengthAdjust="spacing" textLength="171" x="591" y="127.3198">addRetailer(account: address)</text><text fill="#000000" font-family="sans-serif" font-size="11" lengthAdjust="spacing" textLength="104" x="591" y="140.1245">renounceRetailer()</text><!--MD5=[da202ec8fe27fb724d73cf84a9d09b53]
class ConsumerRole--><rect codeLine="37" fill="#FEFECE" filter="url(#f1mhed25rsqost)" height="99.2188" id="ConsumerRole" style="stroke:#A80036;stroke-width:1.5;" width="220" x="330" y="47.5"/><ellipse cx="390.75" cy="63.5" fill="#ADD1B2" rx="11" ry="11" style="stroke:#A80036;stroke-width:1.0;"/><path d="M393.7188,69.1406 Q393.1406,69.4375 392.5,69.5781 Q391.8594,69.7344 391.1563,69.7344 Q388.6563,69.7344 387.3281,68.0938 Q386.0156,66.4375 386.0156,63.3125 Q386.0156,60.1875 387.3281,58.5313 Q388.6563,56.875 391.1563,56.875 Q391.8594,56.875 392.5,57.0313 Q393.1563,57.1875 393.7188,57.4844 L393.7188,60.2031 Q393.0938,59.625 392.5,59.3594 Q391.9063,59.0781 391.2813,59.0781 Q389.9375,59.0781 389.25,60.1563 Q388.5625,61.2188 388.5625,63.3125 Q388.5625,65.4063 389.25,66.4844 Q389.9375,67.5469 391.2813,67.5469 Q391.9063,67.5469 392.5,67.2813 Q393.0938,67 393.7188,66.4219 L393.7188,69.1406 Z " fill="#000000"/><text fill="#000000" font-family="sans-serif" font-size="12" lengthAdjust="spacing" textLength="90" x="411.25" y="67.6543">ConsumerRole</text><line style="stroke:#A80036;stroke-width:1.5;" x1="331" x2="549" y1="79.5" y2="79.5"/><text fill="#000000" font-family="sans-serif" font-size="11" lengthAdjust="spacing" textLength="96" x="336" y="93.7104">consumers: Role</text><line style="stroke:#A80036;stroke-width:1.5;" x1="331" x2="549" y1="100.3047" y2="100.3047"/><text fill="#000000" font-family="sans-serif" font-size="11" lengthAdjust="spacing" textLength="208" x="336" y="114.5151">isConsumer(account: address): bool</text><text fill="#000000" font-family="sans-serif" font-size="11" lengthAdjust="spacing" textLength="187" x="336" y="127.3198">addConsumer(account: address)</text><text fill="#000000" font-family="sans-serif" font-size="11" lengthAdjust="spacing" textLength="120" x="336" y="140.1245">renounceConsumer()</text><!--MD5=[7f45976635210019d8fdbf63ea652dc0]
class SupplyChain--><rect codeLine="47" fill="#FEFECE" filter="url(#f1mhed25rsqost)" height="201.6563" id="SupplyChain" style="stroke:#A80036;stroke-width:1.5;" width="1259" x="57.5" y="228"/><ellipse cx="644.75" cy="244" fill="#ADD1B2" rx="11" ry="11" style="stroke:#A80036;stroke-width:1.0;"/><path d="M647.7188,249.6406 Q647.1406,249.9375 646.5,250.0781 Q645.8594,250.2344 645.1563,250.2344 Q642.6563,250.2344 641.3281,248.5938 Q640.0156,246.9375 640.0156,243.8125 Q640.0156,240.6875 641.3281,239.0313 Q642.6563,237.375 645.1563,237.375 Q645.8594,237.375 646.5,237.5313 Q647.1563,237.6875 647.7188,237.9844 L647.7188,240.7031 Q647.0938,240.125 646.5,239.8594 Q645.9063,239.5781 645.2813,239.5781 Q643.9375,239.5781 643.25,240.6563 Q642.5625,241.7188 642.5625,243.8125 Q642.5625,245.9063 643.25,246.9844 Q643.9375,248.0469 645.2813,248.0469 Q645.9063,248.0469 646.5,247.7813 Q647.0938,247.5 647.7188,246.9219 L647.7188,249.6406 Z " fill="#000000"/><text fill="#000000" font-family="sans-serif" font-size="12" lengthAdjust="spacing" textLength="76" x="665.25" y="248.1543">SupplyChain</text><line style="stroke:#A80036;stroke-width:1.5;" x1="58.5" x2="1315.5" y1="260" y2="260"/><text fill="#000000" font-family="sans-serif" font-size="11" lengthAdjust="spacing" textLength="70" x="63.5" y="274.2104">sku: uint256</text><text fill="#000000" font-family="sans-serif" font-size="11" lengthAdjust="spacing" textLength="190" x="63.5" y="287.0151">items: mapping(uint256 =&gt; Item)</text><line style="stroke:#A80036;stroke-width:1.5;" x1="58.5" x2="1315.5" y1="293.6094" y2="293.6094"/><text fill="#000000" font-family="sans-serif" font-size="11" lengthAdjust="spacing" textLength="1056" x="63.5" y="307.8198">harvestItem(upc: uint256, originFarmerID: address, originFarmName: string, originFarmInformation: string, originFarmLatitude: string, originFarmLongitude: string, productNotes: string)</text><text fill="#000000" font-family="sans-serif" font-size="11" lengthAdjust="spacing" textLength="149" x="63.5" y="320.6245">processItem(upc: uint256)</text><text fill="#000000" font-family="sans-serif" font-size="11" lengthAdjust="spacing" textLength="129" x="63.5" y="333.4292">packItem(upc: uint256)</text><text fill="#000000" font-family="sans-serif" font-size="11" lengthAdjust="spacing" textLength="209" x="63.5" y="346.2339">sellItem(upc: uint256, price: uint256)</text><text fill="#000000" font-family="sans-serif" font-size="11" lengthAdjust="spacing" textLength="123" x="63.5" y="359.0386">buyItem(upc: uint256)</text><text fill="#000000" font-family="sans-serif" font-size="11" lengthAdjust="spacing" textLength="127" x="63.5" y="371.8433">shipItem(upc: uint256)</text><text fill="#000000" font-family="sans-serif" font-size="11" lengthAdjust="spacing" textLength="144" x="63.5" y="384.6479">receiveItem(upc: uint256)</text><text fill="#000000" font-family="sans-serif" font-size="11" lengthAdjust="spacing" textLength="156" x="63.5" y="397.4526">purchaseItem(upc: uint256)</text><text fill="#000000" font-family="sans-serif" font-size="11" lengthAdjust="spacing" textLength="1247" x="63.5" y="410.2573">fetchItemBufferOne(upc: uint256): (sku: uint256, upc: uint256, ownerID: address, originFarmerID: address, originFarmName: string, originFarmInformation: string, originFarmLatitude: string, originFarmLongitude: string)</text><text fill="#000000" font-family="sans-serif" font-size="11" lengthAdjust="spacing" textLength="1168" x="63.5" y="423.062">fetchItemBufferTwo(upc: uint256): (sku: uint256, upc: uint256, productID: uint256, productNotes: string, price: uint256, itemState: uint256, distributorID: address, retailerID: address, consumerID: address)</text><!--MD5=[9c77da438fa6132ca6a1c69a7ecc1c46]
reverse link Ownable to SupplyChain--><path codeLine="63" d="M280.69,161.68 C291.91,166.97 303.13,172.14 314,177 C352.19,194.07 392.92,211.42 432.91,227.98 " fill="none" id="Ownable-backto-SupplyChain" style="stroke:#A80036;stroke-width:1.0;"/><polygon fill="none" points="277.55,167.94,262.49,153.03,283.56,155.3,277.55,167.94" style="stroke:#A80036;stroke-width:1.0;"/><!--MD5=[41c139a9cffbf32efc32743c016a657c]
reverse link FarmerRole to SupplyChain--><path codeLine="64" d="M1096.73,157.58 C1085.59,164.48 1074.16,171.13 1063,177 C1028.91,194.92 992.2,212.08 955.56,227.99 " fill="none" id="FarmerRole-backto-SupplyChain" style="stroke:#A80036;stroke-width:1.0;"/><polygon fill="none" points="1093.3,151.47,1113.93,146.62,1100.82,163.27,1093.3,151.47" style="stroke:#A80036;stroke-width:1.0;"/><!--MD5=[fc25036448d91e8e8093070882488966]
reverse link DistributorRole to SupplyChain--><path codeLine="65" d="M867.45,160.64 C845.06,181.41 819.55,205.07 794.9,227.93 " fill="none" id="DistributorRole-backto-SupplyChain" style="stroke:#A80036;stroke-width:1.0;"/><polygon fill="none" points="862.98,155.24,882.41,146.78,872.5,165.51,862.98,155.24" style="stroke:#A80036;stroke-width:1.0;"/><!--MD5=[3eb8c72a854983ff04cff0f7bf51debd]
reverse link RetailerRole to SupplyChain--><path codeLine="66" d="M687,166.96 C687,186.06 687,207.19 687,227.69 " fill="none" id="RetailerRole-backto-SupplyChain" style="stroke:#A80036;stroke-width:1.0;"/><polygon fill="none" points="680,166.78,687,146.78,694,166.78,680,166.78" style="stroke:#A80036;stroke-width:1.0;"/><!--MD5=[e99b0b7cb3fe3db00ae29e21b7d0f112]
reverse link ConsumerRole to SupplyChain--><path codeLine="67" d="M507.27,160.64 C529.57,181.41 554.98,205.07 579.53,227.93 " fill="none" id="ConsumerRole-backto-SupplyChain" style="stroke:#A80036;stroke-width:1.0;"/><polygon fill="none" points="502.25,165.53,492.38,146.78,511.79,155.28,502.25,165.53" style="stroke:#A80036;stroke-width:1.0;"/><!--MD5=[2bbb766e45b8ac0e451d533b9ec4fabe]
@startuml Class Diagram
package Core {
    class Ownable {
        {field} origOwner: address

        {method} owner(): address
        {method} isOwner(): bool
        {method} renounceOwnership()
        {method} transferOwnership(newOwner: address)
    }
}

package AccessControl {
    class FarmerRole {
        {field} farmers: Role

        {method} isFarmer(account: address): bool
        {method} addFarmer(account: address)
        {method} renounceFarmer()
    }

    class DistributorRole {
        {field} distributors: Role

        {method} isDistributor(account: address): bool
        {method} addDistributor(account: address)
        {method} renounceDistributor()
    }

    class RetailerRole {
        {field} retailers: Role

        {method} isRetailer(account: address): bool
        {method} addRetailer(account: address)
        {method} renounceRetailer()
    }

    class ConsumerRole {
        {field} consumers: Role

        {method} isConsumer(account: address): bool
        {method} addConsumer(account: address)
        {method} renounceConsumer()
    }
}

package Base {
    class SupplyChain {
        {field} sku: uint256
        {field} items: mapping(uint256 => Item)

        {method} harvestItem(upc: uint256, originFarmerID: address, originFarmName: string, originFarmInformation: string, originFarmLatitude: string, originFarmLongitude: string, productNotes: string)
        {method} processItem(upc: uint256)
        {method} packItem(upc: uint256)
        {method} sellItem(upc: uint256, price: uint256)
        {method} buyItem(upc: uint256)
        {method} shipItem(upc: uint256)
        {method} receiveItem(upc: uint256)
        {method} purchaseItem(upc: uint256)
        {method} fetchItemBufferOne(upc: uint256): (sku: uint256, upc: uint256, ownerID: address, originFarmerID: address, originFarmName: string, originFarmInformation: string, originFarmLatitude: string, originFarmLongitude: string)
        {method} fetchItemBufferTwo(upc: uint256): (sku: uint256, upc: uint256, productID: uint256, productNotes: string, price: uint256, itemState: uint256, distributorID: address, retailerID: address, consumerID: address)
    }

    Ownable <|- - SupplyChain
    FarmerRole <|- - SupplyChain
    DistributorRole <|- - SupplyChain
    RetailerRole <|- - SupplyChain
    ConsumerRole <|- - SupplyChain
}

@enduml

PlantUML version 1.2022.0(Wed Jan 12 00:16:42 HKT 2022)
(GPL source distribution)
Java Runtime: OpenJDK Runtime Environment
JVM: OpenJDK 64-Bit Server VM
Default Encoding: UTF-8
Language: en
Country: null
--></g></svg>