<?xml version="1.0" encoding="UTF-8" standalone="no"?><svg xmlns="http://www.w3.org/2000/svg" xmlns:xlink="http://www.w3.org/1999/xlink" contentScriptType="application/ecmascript" contentStyleType="text/css" height="365px" preserveAspectRatio="none" style="width:526px;height:365px;background:#FFFFFF;" version="1.1" viewBox="0 0 526 365" width="526px" zoomAndPan="magnify"><defs><filter height="300%" id="f18cgtgaoqklfg" width="300%" x="-1" y="-1"><feGaussianBlur result="blurOut" stdDeviation="2.0"/><feColorMatrix in="blurOut" result="blurOut2" type="matrix" values="0 0 0 0 0 0 0 0 0 0 0 0 0 0 0 0 0 0 .4 0"/><feOffset dx="4.0" dy="4.0" in="blurOut2" result="blurOut3"/><feBlend in="SourceGraphic" in2="blurOut3" mode="normal"/></filter></defs><g><rect fill="#FFFFFF" filter="url(#f18cgtgaoqklfg)" height="263.1953" style="stroke:#A80036;stroke-width:1.0;" width="10" x="31.5" y="50.2969"/><rect fill="#FFFFFF" filter="url(#f18cgtgaoqklfg)" height="116.5313" style="stroke:#A80036;stroke-width:1.0;" width="10" x="154.5" y="71.4297"/><rect fill="#FFFFFF" filter="url(#f18cgtgaoqklfg)" height="29.1328" style="stroke:#A80036;stroke-width:1.0;" width="10" x="245.5" y="187.9609"/><rect fill="#FFFFFF" filter="url(#f18cgtgaoqklfg)" height="29.1328" style="stroke:#A80036;stroke-width:1.0;" width="10" x="339.5" y="217.0938"/><rect fill="#FFFFFF" filter="url(#f18cgtgaoqklfg)" height="67.2656" style="stroke:#A80036;stroke-width:1.0;" width="10" x="466.5" y="246.2266"/><line style="stroke:#A80036;stroke-width:1.0;stroke-dasharray:5.0,5.0;" x1="36" x2="36" y1="40.2969" y2="322.4922"/><line style="stroke:#A80036;stroke-width:1.0;stroke-dasharray:5.0,5.0;" x1="159.5" x2="159.5" y1="40.2969" y2="322.4922"/><line style="stroke:#A80036;stroke-width:1.0;stroke-dasharray:5.0,5.0;" x1="250.5" x2="250.5" y1="40.2969" y2="322.4922"/><line style="stroke:#A80036;stroke-width:1.0;stroke-dasharray:5.0,5.0;" x1="344.5" x2="344.5" y1="40.2969" y2="322.4922"/><line style="stroke:#A80036;stroke-width:1.0;stroke-dasharray:5.0,5.0;" x1="471.5" x2="471.5" y1="40.2969" y2="322.4922"/><rect fill="#FEFECE" filter="url(#f18cgtgaoqklfg)" height="30.2969" style="stroke:#A80036;stroke-width:1.5;" width="59" x="5" y="5"/><text fill="#000000" font-family="sans-serif" font-size="14" lengthAdjust="spacing" textLength="45" x="12" y="24.9951">Coffee</text><rect fill="#FEFECE" filter="url(#f18cgtgaoqklfg)" height="30.2969" style="stroke:#A80036;stroke-width:1.5;" width="59" x="5" y="321.4922"/><text fill="#000000" font-family="sans-serif" font-size="14" lengthAdjust="spacing" textLength="45" x="12" y="341.4873">Coffee</text><rect fill="#FEFECE" filter="url(#f18cgtgaoqklfg)" height="30.2969" style="stroke:#A80036;stroke-width:1.5;" width="62" x="126.5" y="5"/><text fill="#000000" font-family="sans-serif" font-size="14" lengthAdjust="spacing" textLength="48" x="133.5" y="24.9951">Farmer</text><rect fill="#FEFECE" filter="url(#f18cgtgaoqklfg)" height="30.2969" style="stroke:#A80036;stroke-width:1.5;" width="62" x="126.5" y="321.4922"/><text fill="#000000" font-family="sans-serif" font-size="14" lengthAdjust="spacing" textLength="48" x="133.5" y="341.4873">Farmer</text><rect fill="#FEFECE" filter="url(#f18cgtgaoqklfg)" height="30.2969" style="stroke:#A80036;stroke-width:1.5;" width="86" x="205.5" y="5"/><text fill="#000000" font-family="sans-serif" font-size="14" lengthAdjust="spacing" textLength="72" x="212.5" y="24.9951">Distributor</text><rect fill="#FEFECE" filter="url(#f18cgtgaoqklfg)" height="30.2969" style="stroke:#A80036;stroke-width:1.5;" width="86" x="205.5" y="321.4922"/><text fill="#000000" font-family="sans-serif" font-size="14" lengthAdjust="spacing" textLength="72" x="212.5" y="341.4873">Distributor</text><rect fill="#FEFECE" filter="url(#f18cgtgaoqklfg)" height="30.2969" style="stroke:#A80036;stroke-width:1.5;" width="66" x="309.5" y="5"/><text fill="#000000" font-family="sans-serif" font-size="14" lengthAdjust="spacing" textLength="52" x="316.5" y="24.9951">Retailer</text><rect fill="#FEFECE" filter="url(#f18cgtgaoqklfg)" height="30.2969" style="stroke:#A80036;stroke-width:1.5;" width="66" x="309.5" y="321.4922"/><text fill="#000000" font-family="sans-serif" font-size="14" lengthAdjust="spacing" textLength="52" x="316.5" y="341.4873">Retailer</text><rect fill="#FEFECE" filter="url(#f18cgtgaoqklfg)" height="30.2969" style="stroke:#A80036;stroke-width:1.5;" width="86" x="426.5" y="5"/><text fill="#000000" font-family="sans-serif" font-size="14" lengthAdjust="spacing" textLength="72" x="433.5" y="24.9951">Consumer</text><rect fill="#FEFECE" filter="url(#f18cgtgaoqklfg)" height="30.2969" style="stroke:#A80036;stroke-width:1.5;" width="86" x="426.5" y="321.4922"/><text fill="#000000" font-family="sans-serif" font-size="14" lengthAdjust="spacing" textLength="72" x="433.5" y="341.4873">Consumer</text><rect fill="#FFFFFF" filter="url(#f18cgtgaoqklfg)" height="263.1953" style="stroke:#A80036;stroke-width:1.0;" width="10" x="31.5" y="50.2969"/><rect fill="#FFFFFF" filter="url(#f18cgtgaoqklfg)" height="116.5313" style="stroke:#A80036;stroke-width:1.0;" width="10" x="154.5" y="71.4297"/><rect fill="#FFFFFF" filter="url(#f18cgtgaoqklfg)" height="29.1328" style="stroke:#A80036;stroke-width:1.0;" width="10" x="245.5" y="187.9609"/><rect fill="#FFFFFF" filter="url(#f18cgtgaoqklfg)" height="29.1328" style="stroke:#A80036;stroke-width:1.0;" width="10" x="339.5" y="217.0938"/><rect fill="#FFFFFF" filter="url(#f18cgtgaoqklfg)" height="67.2656" style="stroke:#A80036;stroke-width:1.0;" width="10" x="466.5" y="246.2266"/><polygon fill="#A80036" points="52.5,67.4297,42.5,71.4297,52.5,75.4297,48.5,71.4297" style="stroke:#A80036;stroke-width:1.0;"/><line style="stroke:#A80036;stroke-width:1.0;" x1="46.5" x2="153.5" y1="71.4297" y2="71.4297"/><text fill="#000000" font-family="sans-serif" font-size="13" lengthAdjust="spacing" textLength="87" x="58.5" y="66.3638">harvestItem()</text><polygon fill="#A80036" points="52.5,96.5625,42.5,100.5625,52.5,104.5625,48.5,100.5625" style="stroke:#A80036;stroke-width:1.0;"/><line style="stroke:#A80036;stroke-width:1.0;" x1="46.5" x2="153.5" y1="100.5625" y2="100.5625"/><text fill="#000000" font-family="sans-serif" font-size="13" lengthAdjust="spacing" textLength="89" x="58.5" y="95.4966">processItem()</text><polygon fill="#A80036" points="52.5,125.6953,42.5,129.6953,52.5,133.6953,48.5,129.6953" style="stroke:#A80036;stroke-width:1.0;"/><line style="stroke:#A80036;stroke-width:1.0;" x1="46.5" x2="153.5" y1="129.6953" y2="129.6953"/><text fill="#000000" font-family="sans-serif" font-size="13" lengthAdjust="spacing" textLength="69" x="58.5" y="124.6294">packItem()</text><polygon fill="#A80036" points="52.5,154.8281,42.5,158.8281,52.5,162.8281,48.5,158.8281" style="stroke:#A80036;stroke-width:1.0;"/><line style="stroke:#A80036;stroke-width:1.0;" x1="46.5" x2="153.5" y1="158.8281" y2="158.8281"/><text fill="#000000" font-family="sans-serif" font-size="13" lengthAdjust="spacing" textLength="60" x="58.5" y="153.7622">sellItem()</text><polygon fill="#A80036" points="170.5,183.9609,160.5,187.9609,170.5,191.9609,166.5,187.9609" style="stroke:#A80036;stroke-width:1.0;"/><line style="stroke:#A80036;stroke-width:1.0;" x1="164.5" x2="244.5" y1="187.9609" y2="187.9609"/><text fill="#000000" font-family="sans-serif" font-size="13" lengthAdjust="spacing" textLength="62" x="176.5" y="182.895">buyItem()</text><polygon fill="#A80036" points="327.5,213.0938,337.5,217.0938,327.5,221.0938,331.5,217.0938" style="stroke:#A80036;stroke-width:1.0;"/><line style="stroke:#A80036;stroke-width:1.0;" x1="250.5" x2="333.5" y1="217.0938" y2="217.0938"/><text fill="#000000" font-family="sans-serif" font-size="13" lengthAdjust="spacing" textLength="65" x="257.5" y="212.0278">shipItem()</text><polygon fill="#A80036" points="355.5,242.2266,345.5,246.2266,355.5,250.2266,351.5,246.2266" style="stroke:#A80036;stroke-width:1.0;"/><line style="stroke:#A80036;stroke-width:1.0;" x1="349.5" x2="465.5" y1="246.2266" y2="246.2266"/><text fill="#000000" font-family="sans-serif" font-size="13" lengthAdjust="spacing" textLength="98" x="361.5" y="241.1606">purchaseItem()</text><polygon fill="#A80036" points="454.5,271.3594,464.5,275.3594,454.5,279.3594,458.5,275.3594" style="stroke:#A80036;stroke-width:1.0;"/><line style="stroke:#A80036;stroke-width:1.0;" x1="41.5" x2="460.5" y1="275.3594" y2="275.3594"/><text fill="#000000" font-family="sans-serif" font-size="13" lengthAdjust="spacing" textLength="135" x="48.5" y="270.2935">fetchItemBufferOne()</text><polygon fill="#A80036" points="454.5,300.4922,464.5,304.4922,454.5,308.4922,458.5,304.4922" style="stroke:#A80036;stroke-width:1.0;"/><line style="stroke:#A80036;stroke-width:1.0;" x1="41.5" x2="460.5" y1="304.4922" y2="304.4922"/><text fill="#000000" font-family="sans-serif" font-size="13" lengthAdjust="spacing" textLength="133" x="48.5" y="299.4263">fetchItemBufferTwo()</text><!--MD5=[baead0a981f8ac9a05ef3f1e18e256a3]
@startuml Sequence Diagram
activate Coffee
Coffee <- Farmer : harvestItem()
activate Farmer
Coffee <- Farmer : processItem()
Coffee <- Farmer : packItem()
Coffee <- Farmer : sellItem()
Farmer <- Distributor : buyItem()
deactivate Farmer
activate Distributor
Distributor -> Retailer : shipItem()
deactivate Distributor
activate Retailer
Retailer <- Consumer : purchaseItem()
deactivate Retailer
activate Consumer
Coffee -> Consumer : fetchItemBufferOne()
Coffee -> Consumer : fetchItemBufferTwo()
@enduml

PlantUML version 1.2022.0(Wed Jan 12 00:16:42 HKT 2022)
(GPL source distribution)
Java Runtime: OpenJDK Runtime Environment
JVM: OpenJDK 64-Bit Server VM
Default Encoding: UTF-8
Language: en
Country: null
--></g></svg>