<?xml version="1.0" encoding="UTF-8" standalone="no"?><svg xmlns="http://www.w3.org/2000/svg" xmlns:xlink="http://www.w3.org/1999/xlink" contentScriptType="application/ecmascript" contentStyleType="text/css" height="270px" preserveAspectRatio="none" style="width:900px;height:270px;background:#FFFFFF;" version="1.1" viewBox="0 0 900 270" width="900px" zoomAndPan="magnify"><defs><filter height="300%" id="f1p0cvtv24jd7y" width="300%" x="-1" y="-1"><feGaussianBlur result="blurOut" stdDeviation="2.0"/><feColorMatrix in="blurOut" result="blurOut2" type="matrix" values="0 0 0 0 0 0 0 0 0 0 0 0 0 0 0 0 0 0 .4 0"/><feOffset dx="4.0" dy="4.0" in="blurOut2" result="blurOut3"/><feBlend in="SourceGraphic" in2="blurOut3" mode="normal"/></filter></defs><g><ellipse cx="16" cy="65.5659" fill="#000000" filter="url(#f1p0cvtv24jd7y)" rx="10" ry="10" style="stroke:none;stroke-width:1.0;"/><g id="Harvested"><rect fill="#FEFECE" filter="url(#f1p0cvtv24jd7y)" height="50" rx="12.5" ry="12.5" style="stroke:#A80036;stroke-width:1.5;" width="90" x="150" y="40.5659"/><line style="stroke:#A80036;stroke-width:1.5;" x1="150" x2="240" y1="66.8628" y2="66.8628"/><text fill="#000000" font-family="sans-serif" font-size="14" lengthAdjust="spacing" textLength="70" x="160" y="58.561">Harvested</text></g><g id="Processed"><rect fill="#FEFECE" filter="url(#f1p0cvtv24jd7y)" height="50" rx="12.5" ry="12.5" style="stroke:#A80036;stroke-width:1.5;" width="94" x="366" y="40.5659"/><line style="stroke:#A80036;stroke-width:1.5;" x1="366" x2="460" y1="66.8628" y2="66.8628"/><text fill="#000000" font-family="sans-serif" font-size="14" lengthAdjust="spacing" textLength="74" x="376" y="58.561">Processed</text></g><g id="Packed"><rect fill="#FEFECE" filter="url(#f1p0cvtv24jd7y)" height="50" rx="12.5" ry="12.5" style="stroke:#A80036;stroke-width:1.5;" width="71" x="575.5" y="40.5659"/><line style="stroke:#A80036;stroke-width:1.5;" x1="575.5" x2="646.5" y1="66.8628" y2="66.8628"/><text fill="#000000" font-family="sans-serif" font-size="14" lengthAdjust="spacing" textLength="51" x="585.5" y="58.561">Packed</text></g><g id="ForSale"><rect fill="#FEFECE" filter="url(#f1p0cvtv24jd7y)" height="50" rx="12.5" ry="12.5" style="stroke:#A80036;stroke-width:1.5;" width="71" x="762.5" y="40.5659"/><line style="stroke:#A80036;stroke-width:1.5;" x1="762.5" x2="833.5" y1="66.8628" y2="66.8628"/><text fill="#000000" font-family="sans-serif" font-size="14" lengthAdjust="spacing" textLength="51" x="772.5" y="58.561">ForSale</text></g><g id="Sold"><rect fill="#FEFECE" filter="url(#f1p0cvtv24jd7y)" height="50" rx="12.5" ry="12.5" style="stroke:#A80036;stroke-width:1.5;" width="50" x="773" y="206.5659"/><line style="stroke:#A80036;stroke-width:1.5;" x1="773" x2="823" y1="232.8628" y2="232.8628"/><text fill="#000000" font-family="sans-serif" font-size="14" lengthAdjust="spacing" textLength="30" x="783" y="224.561">Sold</text></g><g id="Shipped"><rect fill="#FEFECE" filter="url(#f1p0cvtv24jd7y)" height="50" rx="12.5" ry="12.5" style="stroke:#A80036;stroke-width:1.5;" width="77" x="559.5" y="206.5659"/><line style="stroke:#A80036;stroke-width:1.5;" x1="559.5" x2="636.5" y1="232.8628" y2="232.8628"/><text fill="#000000" font-family="sans-serif" font-size="14" lengthAdjust="spacing" textLength="57" x="569.5" y="224.561">Shipped</text></g><g id="Received"><rect fill="#FEFECE" filter="url(#f1p0cvtv24jd7y)" height="50" rx="12.5" ry="12.5" style="stroke:#A80036;stroke-width:1.5;" width="84" x="354" y="206.5659"/><line style="stroke:#A80036;stroke-width:1.5;" x1="354" x2="438" y1="232.8628" y2="232.8628"/><text fill="#000000" font-family="sans-serif" font-size="14" lengthAdjust="spacing" textLength="64" x="364" y="224.561">Received</text></g><g id="Purchased"><rect fill="#FEFECE" filter="url(#f1p0cvtv24jd7y)" height="50" rx="12.5" ry="12.5" style="stroke:#A80036;stroke-width:1.5;" width="94" x="124" y="206.5659"/><line style="stroke:#A80036;stroke-width:1.5;" x1="124" x2="218" y1="232.8628" y2="232.8628"/><text fill="#000000" font-family="sans-serif" font-size="14" lengthAdjust="spacing" textLength="74" x="134" y="224.561">Purchased</text></g><ellipse cx="79" cy="231.5659" filter="url(#f1p0cvtv24jd7y)" rx="10" ry="10" style="stroke:#000000;stroke-width:1.0;fill:none;"/><ellipse cx="79.5" cy="232.0659" fill="#000000" rx="6" ry="6" style="stroke:none;stroke-width:1.0;"/><!--MD5=[abafa0746339e009d8ecc3949e1ff52c]
link *start to Harvested--><path d="M26.14,65.5659 C48.55,65.5659 103.59,65.5659 144.78,65.5659 " fill="none" id="*start-to-Harvested" style="stroke:#A80036;stroke-width:1.0;"/><polygon fill="#A80036" points="149.98,65.5659,140.98,61.5659,144.98,65.5659,140.98,69.5659,149.98,65.5659" style="stroke:#A80036;stroke-width:1.0;"/><text fill="#000000" font-family="sans-serif" font-size="13" lengthAdjust="spacing" textLength="87" x="44.5" y="19.6328">harvestItem()</text><path d="M52.5,28.6987 L52.5,53.6987 L119.5,53.6987 L119.5,38.6987 L109.5,28.6987 L52.5,28.6987 " fill="#FBFB77" filter="url(#f1p0cvtv24jd7y)" style="stroke:#A80036;stroke-width:1.0;"/><path d="M109.5,28.6987 L109.5,38.6987 L119.5,38.6987 L109.5,28.6987 " fill="#FBFB77" style="stroke:#A80036;stroke-width:1.0;"/><text fill="#000000" font-family="sans-serif" font-size="13" lengthAdjust="spacing" textLength="46" x="58.5" y="45.7656">Farmer</text><!--MD5=[594e63753345b1e4d4d2fa61bc8ea77d]
link Harvested to Processed--><path d="M240.17,65.5659 C275.12,65.5659 323.58,65.5659 360.3,65.5659 " fill="none" id="Harvested-to-Processed" style="stroke:#A80036;stroke-width:1.0;"/><polygon fill="#A80036" points="365.63,65.5659,356.63,61.5659,360.63,65.5659,356.63,69.5659,365.63,65.5659" style="stroke:#A80036;stroke-width:1.0;"/><text fill="#000000" font-family="sans-serif" font-size="13" lengthAdjust="spacing" textLength="89" x="258.5" y="19.6328">processItem()</text><path d="M267.5,28.6987 L267.5,53.6987 L334.5,53.6987 L334.5,38.6987 L324.5,28.6987 L267.5,28.6987 " fill="#FBFB77" filter="url(#f1p0cvtv24jd7y)" style="stroke:#A80036;stroke-width:1.0;"/><path d="M324.5,28.6987 L324.5,38.6987 L334.5,38.6987 L324.5,28.6987 " fill="#FBFB77" style="stroke:#A80036;stroke-width:1.0;"/><text fill="#000000" font-family="sans-serif" font-size="13" lengthAdjust="spacing" textLength="46" x="273.5" y="45.7656">Farmer</text><!--MD5=[1799029dea3596d5b160b7dbadfa66db]
link Processed to Packed--><path d="M460.17,65.5659 C493.72,65.5659 538.33,65.5659 570.32,65.5659 " fill="none" id="Processed-to-Packed" style="stroke:#A80036;stroke-width:1.0;"/><polygon fill="#A80036" points="575.34,65.5659,566.34,61.5659,570.34,65.5659,566.34,69.5659,575.34,65.5659" style="stroke:#A80036;stroke-width:1.0;"/><text fill="#000000" font-family="sans-serif" font-size="13" lengthAdjust="spacing" textLength="69" x="483.25" y="19.6328">packItem()</text><path d="M482.25,28.6987 L482.25,53.6987 L549.25,53.6987 L549.25,38.6987 L539.25,28.6987 L482.25,28.6987 " fill="#FBFB77" filter="url(#f1p0cvtv24jd7y)" style="stroke:#A80036;stroke-width:1.0;"/><path d="M539.25,28.6987 L539.25,38.6987 L549.25,38.6987 L539.25,28.6987 " fill="#FBFB77" style="stroke:#A80036;stroke-width:1.0;"/><text fill="#000000" font-family="sans-serif" font-size="13" lengthAdjust="spacing" textLength="46" x="488.25" y="45.7656">Farmer</text><!--MD5=[cb5c48401c284ec375a9f83723d54c93]
link Packed to ForSale--><path d="M646.61,65.5659 C678.1,65.5659 724.02,65.5659 757.02,65.5659 " fill="none" id="Packed-to-ForSale" style="stroke:#A80036;stroke-width:1.0;"/><polygon fill="#A80036" points="762.2,65.5659,753.2,61.5659,757.2,65.5659,753.2,69.5659,762.2,65.5659" style="stroke:#A80036;stroke-width:1.0;"/><text fill="#000000" font-family="sans-serif" font-size="13" lengthAdjust="spacing" textLength="60" x="674.5" y="19.6328">sellItem()</text><path d="M669,28.6987 L669,53.6987 L736,53.6987 L736,38.6987 L726,28.6987 L669,28.6987 " fill="#FBFB77" filter="url(#f1p0cvtv24jd7y)" style="stroke:#A80036;stroke-width:1.0;"/><path d="M726,28.6987 L726,38.6987 L736,38.6987 L726,28.6987 " fill="#FBFB77" style="stroke:#A80036;stroke-width:1.0;"/><text fill="#000000" font-family="sans-serif" font-size="13" lengthAdjust="spacing" textLength="46" x="675" y="45.7656">Farmer</text><!--MD5=[bedfaf75e71db9a83b01f431f7c7c1ec]
link ForSale to Sold--><path d="M798,90.7659 C798,120.1559 798,169.7159 798,201.2559 " fill="none" id="ForSale-to-Sold" style="stroke:#A80036;stroke-width:1.0;"/><polygon fill="#A80036" points="798,206.5359,802,197.5359,798,201.5359,794,197.5359,798,206.5359" style="stroke:#A80036;stroke-width:1.0;"/><text fill="#000000" font-family="sans-serif" font-size="13" lengthAdjust="spacing" textLength="62" x="818" y="133.6328">buyItem()</text><path d="M803,142.6987 L803,167.6987 L891,167.6987 L891,152.6987 L881,142.6987 L803,142.6987 " fill="#FBFB77" filter="url(#f1p0cvtv24jd7y)" style="stroke:#A80036;stroke-width:1.0;"/><path d="M881,142.6987 L881,152.6987 L891,152.6987 L881,142.6987 " fill="#FBFB77" style="stroke:#A80036;stroke-width:1.0;"/><text fill="#000000" font-family="sans-serif" font-size="13" lengthAdjust="spacing" textLength="67" x="809" y="159.7656">Distributor</text><!--MD5=[6f0691278439e36aec611d1b48e8b1fc]
reverse link Shipped to Sold--><path d="M641.86,231.5659 C682,231.5659 740.01,231.5659 772.85,231.5659 " fill="none" id="Shipped-backto-Sold" style="stroke:#A80036;stroke-width:1.0;"/><polygon fill="#A80036" points="636.56,231.5659,645.56,235.5659,641.56,231.5659,645.56,227.5659,636.56,231.5659" style="stroke:#A80036;stroke-width:1.0;"/><text fill="#000000" font-family="sans-serif" font-size="13" lengthAdjust="spacing" textLength="65" x="672.25" y="185.6328">shipItem()</text><path d="M658.75,194.6987 L658.75,219.6987 L746.75,219.6987 L746.75,204.6987 L736.75,194.6987 L658.75,194.6987 " fill="#FBFB77" filter="url(#f1p0cvtv24jd7y)" style="stroke:#A80036;stroke-width:1.0;"/><path d="M736.75,194.6987 L736.75,204.6987 L746.75,204.6987 L736.75,194.6987 " fill="#FBFB77" style="stroke:#A80036;stroke-width:1.0;"/><text fill="#000000" font-family="sans-serif" font-size="13" lengthAdjust="spacing" textLength="67" x="664.75" y="211.7656">Distributor</text><!--MD5=[e1275d6c8d7cc697b795d021ba366b5d]
reverse link Received to Shipped--><path d="M443.47,231.5659 C478.82,231.5659 526.47,231.5659 559.47,231.5659 " fill="none" id="Received-backto-Shipped" style="stroke:#A80036;stroke-width:1.0;"/><polygon fill="#A80036" points="438.35,231.5659,447.35,235.5659,443.35,231.5659,447.35,227.5659,438.35,231.5659" style="stroke:#A80036;stroke-width:1.0;"/><text fill="#000000" font-family="sans-serif" font-size="13" lengthAdjust="spacing" textLength="85" x="456.25" y="185.6328">receiveItem()</text><path d="M462.25,194.6987 L462.25,219.6987 L531.25,219.6987 L531.25,204.6987 L521.25,194.6987 L462.25,194.6987 " fill="#FBFB77" filter="url(#f1p0cvtv24jd7y)" style="stroke:#A80036;stroke-width:1.0;"/><path d="M521.25,194.6987 L521.25,204.6987 L531.25,204.6987 L521.25,194.6987 " fill="#FBFB77" style="stroke:#A80036;stroke-width:1.0;"/><text fill="#000000" font-family="sans-serif" font-size="13" lengthAdjust="spacing" textLength="48" x="468.25" y="211.7656">Retailer</text><!--MD5=[882270dd1e42ecfed535c8c85f00cc83]
reverse link Purchased to Received--><path d="M223.42,231.5659 C263.11,231.5659 316.9,231.5659 353.83,231.5659 " fill="none" id="Purchased-backto-Received" style="stroke:#A80036;stroke-width:1.0;"/><polygon fill="#A80036" points="218.17,231.5659,227.17,235.5659,223.17,231.5659,227.17,227.5659,218.17,231.5659" style="stroke:#A80036;stroke-width:1.0;"/><text fill="#000000" font-family="sans-serif" font-size="13" lengthAdjust="spacing" textLength="98" x="237" y="185.6328">purchaseItem()</text><path d="M240.5,194.6987 L240.5,219.6987 L327.5,219.6987 L327.5,204.6987 L317.5,194.6987 L240.5,194.6987 " fill="#FBFB77" filter="url(#f1p0cvtv24jd7y)" style="stroke:#A80036;stroke-width:1.0;"/><path d="M317.5,194.6987 L317.5,204.6987 L327.5,204.6987 L317.5,194.6987 " fill="#FBFB77" style="stroke:#A80036;stroke-width:1.0;"/><text fill="#000000" font-family="sans-serif" font-size="13" lengthAdjust="spacing" textLength="66" x="246.5" y="211.7656">Consumer</text><!--MD5=[7754c64360174d524f09060efc2382e8]
reverse link *end to Purchased--><path d="M94.24,231.5659 C104.14,231.5659 114.05,231.5659 123.95,231.5659 " fill="none" id="*end-backto-Purchased" style="stroke:#A80036;stroke-width:1.0;"/><polygon fill="#A80036" points="89.06,231.5659,98.06,235.5659,94.06,231.5659,98.06,227.5659,89.06,231.5659" style="stroke:#A80036;stroke-width:1.0;"/><!--MD5=[d128bc1cd5c7cae605cda05d7278b91b]
@startuml State Diagram
[*] -right-> Harvested : harvestItem()
note on link
  Farmer
end note
Harvested -right-> Processed : processItem()
note on link
  Farmer
end note
Processed -right-> Packed : packItem()
note on link
  Farmer
end note
Packed -right-> ForSale : sellItem()
note on link
  Farmer
end note
ForSale - -> Sold : buyItem()
note on link
  Distributor
end note
Sold -left-> Shipped : shipItem()
note on link
  Distributor
end note
Shipped -left-> Received : receiveItem()
note on link
  Retailer
end note
Received -left-> Purchased : purchaseItem()
note on link
  Consumer
end note
Purchased -left-> [*]
@enduml

PlantUML version 1.2022.0(Wed Jan 12 00:16:42 HKT 2022)
(GPL source distribution)
Java Runtime: OpenJDK Runtime Environment
JVM: OpenJDK 64-Bit Server VM
Default Encoding: UTF-8
Language: en
Country: null
--></g></svg>